<mxfile host="app.diagrams.net" modified="2024-05-06T19:02:23.748Z" agent="Mozilla/5.0 (Macintosh; Intel Mac OS X 10_15_7) AppleWebKit/537.36 (KHTML, like Gecko) Chrome/124.0.0.0 Safari/537.36" version="24.3.1" etag="xfGkt-qE5DX-e90ZUnOG" type="github">
  <diagram name="Page-1" id="aB4k0XV5BPOrW6FSFgb8">
    <mxGraphModel>
      <root>
        <mxCell id="0" />
        <mxCell id="1" parent="0" />
      </root>
    </mxGraphModel>
  </diagram>
</mxfile>
